<svg width="32" height="32" viewBox="0 0 32 32" fill="none" xmlns="http://www.w3.org/2000/svg">
<rect width="32" height="32" rx="16" fill="#FEF6E7"/>
<path d="M16.0017 14.0007C15.265 14.0007 14.6683 14.4487 14.6683 15.0007C14.6683 15.5527 15.265 16.0007 16.0017 16.0007C16.7383 16.0007 17.335 16.4487 17.335 17.0007C17.335 17.5527 16.7377 18.0007 16.0017 18.0007M16.0017 14.0007C16.5817 14.0007 17.0763 14.2787 17.259 14.6673M16.0017 14.0007V13.334M16.0017 18.0007C15.4217 18.0007 14.927 17.7227 14.7443 17.334M16.0017 18.0007V18.6673M17.0003 9.66735H16.0003C13.015 9.66735 11.5217 9.66735 10.5943 10.5947C9.66699 11.522 9.66699 13.0147 9.66699 16.0007C9.66699 18.986 9.66699 20.4787 10.5943 21.4067C11.5217 22.3333 13.0143 22.3333 16.0003 22.3333C18.9857 22.3333 20.479 22.3333 21.4063 21.406C22.3337 20.4787 22.3337 18.9867 22.3337 16V15M19.0003 12.9993L21.7843 10.214M22.3337 12.6513L22.255 10.5907C22.255 10.1047 21.965 9.80202 21.4363 9.76402L19.3537 9.66602" stroke="#F5B546" stroke-width="1.5" stroke-linecap="round" stroke-linejoin="round"/>
</svg>
