<svg width="16" height="16" viewBox="0 0 16 16" fill="none" xmlns="http://www.w3.org/2000/svg">
<path d="M8.00166 6.00478C7.26499 6.00478 6.66833 6.45278 6.66833 7.00478C6.66833 7.55744 7.26499 8.00478 8.00166 8.00478C8.73833 8.00478 9.33499 8.45278 9.33499 9.00478C9.33499 9.55744 8.73766 10.0048 8.00166 10.0048M8.00166 6.00478C8.58166 6.00478 9.07632 6.28278 9.25899 6.67144M8.00166 6.00478V5.33811M8.00166 10.0048C7.42166 10.0048 6.92699 9.72678 6.74433 9.33811M8.00166 10.0048V10.6714M8.66699 1.67144H8.00033C5.01499 1.67144 3.52166 1.67144 2.59433 2.59878C1.66699 3.52611 1.66699 5.01878 1.66699 8.00544C1.66699 10.9901 1.66699 12.4834 2.59433 13.4108C3.52166 14.3381 5.01433 14.3381 8.00033 14.3381C10.9857 14.3381 12.479 14.3381 13.4063 13.4108C14.3337 12.4834 14.3337 10.9908 14.3337 8.00478V7.33811M14.3257 1.66211L11.5423 4.44678M10.9923 2.00944L11.0717 4.07011C11.0717 4.55611 11.3617 4.85878 11.8897 4.89678L13.9723 4.99478" stroke="#434953" stroke-width="1.5" stroke-linecap="round" stroke-linejoin="round"/>
</svg>
